<svg width="618" height="59" viewBox="0 0 618 59" fill="none" xmlns="http://www.w3.org/2000/svg">
<path fill-rule="evenodd" clip-rule="evenodd" d="M609 59H0V57H609V59Z" fill="#7D0000"/>
<path fill-rule="evenodd" clip-rule="evenodd" d="M607 2H1V0H607V2Z" fill="#7D0000"/>
<path fill-rule="evenodd" clip-rule="evenodd" d="M606.883 11.1171H0.999969V9.26422H606.883V11.1171Z" fill="#7D0000"/>
<path fill-rule="evenodd" clip-rule="evenodd" d="M606.883 50.0156H0.999969V48.1628H606.883V50.0156Z" fill="#7D0000"/>
<path fill-rule="evenodd" clip-rule="evenodd" d="M15.9961 14.8211H23.0609V20.4647H28.7061V26.1083H34.3513V33.171H28.7061V38.8145H23.0609V44.4581H15.9961V43.7486V38.8145H10.3509V33.171H4.70567V26.1083H10.3509V20.4647H15.9961V14.8211ZM17.4156 43.039H21.6414V37.3954H27.2866V31.7519H32.9318V27.5274H27.2866V21.8838H21.6414V16.2402H17.4156V21.8838H11.7704V27.5274H6.12519V31.7519H11.7704V37.3954H17.4156V43.039Z" fill="#7D0000"/>
<path fill-rule="evenodd" clip-rule="evenodd" d="M16.1176 26.1688H22.5725L22.5736 26.6688V26.1688H23.0736V33.1248H16.1176V26.1688ZM22.0736 27.1688H17.1176V32.1248H22.0736V27.1688Z" fill="#7D0000"/>
<path fill-rule="evenodd" clip-rule="evenodd" d="M35.7242 21.8042H42.3027V16.2472H47.8236L47.7913 9.26182L46.7913 9.26644L46.819 15.2472H41.3027V20.8042H36.7242V17.5397L36.7626 15.2472H31.1456V9.26413H30.1456V16.2472H35.7457L35.7241 17.5354L35.7242 21.8042Z" fill="#7D0000"/>
<path fill-rule="evenodd" clip-rule="evenodd" d="M35.7242 36.5487H42.3027V42.1056H47.8236L47.7913 49.091L46.7913 49.0864L46.819 43.1056H41.3027V37.5487H36.7242V40.8132L36.7626 43.1056H31.1456V49.0887H30.1456V42.1056H35.7457L35.7241 40.8174L35.7242 36.5487Z" fill="#7D0000"/>
<path fill-rule="evenodd" clip-rule="evenodd" d="M74.6341 21.8041H81.2126V16.2471H86.7335L86.7012 9.26172L85.7012 9.26635L85.7289 15.2471H80.2126V20.8041H75.6341V17.5396L75.6725 15.2471H70.0555V9.26404H69.0555V16.2471H74.6556L74.634 17.5354L74.6341 21.8041Z" fill="#7D0000"/>
<path fill-rule="evenodd" clip-rule="evenodd" d="M74.6341 36.5486H81.2126V42.1055H86.7335L86.7012 49.0909L85.7012 49.0863L85.7289 43.1055H80.2126V37.5486H75.6341V40.8131L75.6725 43.1055H70.0555V49.0886H69.0555V42.1055H74.6556L74.634 40.8173L74.6341 36.5486Z" fill="#7D0000"/>
<path fill-rule="evenodd" clip-rule="evenodd" d="M113.544 21.8041H120.123V16.2471H125.643L125.611 9.26172L124.611 9.26635L124.639 15.2471H119.123V20.8041H114.544V17.5396L114.582 15.2471H108.965V9.26404H107.965V16.2471H113.566L113.544 17.5354L113.544 21.8041Z" fill="#7D0000"/>
<path fill-rule="evenodd" clip-rule="evenodd" d="M113.544 36.5486H120.123V42.1055H125.643L125.611 49.0909L124.611 49.0863L124.639 43.1055H119.123V37.5486H114.544V40.8131L114.582 43.1055H108.965V49.0886H107.965V42.1055H113.566L113.544 40.8173L113.544 36.5486Z" fill="#7D0000"/>
<path fill-rule="evenodd" clip-rule="evenodd" d="M93.8159 14.821H100.881V20.4646H106.526V26.1082H112.171V33.1708H106.526V38.8144H100.881V44.458H93.8159V43.7485V38.8144H88.1707V33.1708H82.5255V26.1082H88.1707V20.4646H93.8159V14.821ZM95.2354 43.0389H99.4612V37.3953H105.106V31.7517H110.752V27.5273H105.106V21.8837H99.4612V16.2401H95.2354V21.8837H89.5902V27.5273H83.945V31.7517H89.5902V37.3953H95.2354V43.0389Z" fill="#7D0000"/>
<path fill-rule="evenodd" clip-rule="evenodd" d="M93.9374 26.1687H100.392L100.393 26.6687V26.1687H100.893V33.1247H93.9374V26.1687ZM99.8934 27.1687H94.9374V32.1247H99.8934V27.1687Z" fill="#7D0000"/>
<path fill-rule="evenodd" clip-rule="evenodd" d="M54.906 14.821H61.9708V20.4646H67.616V26.1082H73.2612V33.1708H67.616V38.8144H61.9708V44.458H54.906V43.7485V38.8144H49.2608V33.1708H43.6156V26.1082H49.2608V20.4646H54.906V14.821ZM56.3256 43.0389H60.5513V37.3953H66.1965V31.7517H71.8417V27.5273H66.1965V21.8837H60.5513V16.2401H56.3256V21.8837H50.6803V27.5273H45.0351V31.7517H50.6803V37.3953H56.3256V43.0389Z" fill="#7D0000"/>
<path fill-rule="evenodd" clip-rule="evenodd" d="M54.3686 26.2352H60.6912L60.6923 26.7352V26.2352H61.1923V33.0588H54.3686V26.2352ZM60.1923 27.2352H55.3694L55.3686 32.0588H60.1923V27.2352Z" fill="#7D0000"/>
<path fill-rule="evenodd" clip-rule="evenodd" d="M132.726 14.821H139.791V20.4646H145.436V26.1082H151.081V33.1708H145.436V38.8144H139.791V44.458H132.726V43.7485V38.8144H127.081V33.1708H121.435V26.1082H127.081V20.4646H132.726V14.821ZM134.145 43.0389H138.371V37.3953H144.016V31.7517H149.662V27.5273H144.016V21.8837H138.371V16.2401H134.145V21.8837H128.5V27.5273H122.855V31.7517H128.5V37.3953H134.145V43.0389Z" fill="#7D0000"/>
<path fill-rule="evenodd" clip-rule="evenodd" d="M132.188 26.2352H138.511L138.512 26.7352V26.2352H139.012V33.0588H132.188V26.2352ZM138.012 27.2352H133.189L133.188 32.0588H138.012V27.2352Z" fill="#7D0000"/>
<path fill-rule="evenodd" clip-rule="evenodd" d="M152.454 21.8042H159.032V16.2472H164.553L164.521 9.26182L163.521 9.26644L163.549 15.2472H158.032V20.8042H153.454V17.5397L153.492 15.2472H147.875V9.26413H146.875V16.2472H152.475L152.454 17.5354L152.454 21.8042Z" fill="#7D0000"/>
<path fill-rule="evenodd" clip-rule="evenodd" d="M152.454 36.5487H159.032V42.1056H164.553L164.521 49.091L163.521 49.0864L163.549 43.1056H158.032V37.5487H153.454V40.8132L153.492 43.1056H147.875V49.0887H146.875V42.1056H152.475L152.454 40.8174L152.454 36.5487Z" fill="#7D0000"/>
<path fill-rule="evenodd" clip-rule="evenodd" d="M191.364 21.8041H197.942V16.2471H203.463L203.431 9.26172L202.431 9.26635L202.459 15.2471H196.942V20.8041H192.364V17.5396L192.402 15.2471H186.785V9.26404H185.785V16.2471H191.385L191.364 17.5354L191.364 21.8041Z" fill="#7D0000"/>
<path fill-rule="evenodd" clip-rule="evenodd" d="M191.364 36.5486H197.942V42.1055H203.463L203.431 49.0909L202.431 49.0863L202.459 43.1055H196.942V37.5486H192.364V40.8131L192.402 43.1055H186.785V49.0886H185.785V42.1055H191.385L191.364 40.8173L191.364 36.5486Z" fill="#7D0000"/>
<path fill-rule="evenodd" clip-rule="evenodd" d="M230.274 21.8041H236.852V16.2471H242.373L242.341 9.26172L241.341 9.26635L241.368 15.2471H235.852V20.8041H231.274V17.5396L231.312 15.2471H225.695V9.26404H224.695V16.2471H230.295L230.274 17.5354L230.274 21.8041Z" fill="#7D0000"/>
<path fill-rule="evenodd" clip-rule="evenodd" d="M230.274 36.5486H236.852V42.1055H242.373L242.341 49.0909L241.341 49.0863L241.368 43.1055H235.852V37.5486H231.274V40.8131L231.312 43.1055H225.695V49.0886H224.695V42.1055H230.295L230.274 40.8173L230.274 36.5486Z" fill="#7D0000"/>
<path fill-rule="evenodd" clip-rule="evenodd" d="M210.546 14.821H217.61V20.4646H223.256V26.1082H228.901V33.1708H223.256V38.8144H217.61V44.458H210.546V43.7485V38.8144H204.9V33.1708H199.255V26.1082H204.9V20.4646H210.546V14.821ZM211.965 43.0389H216.191V37.3953H221.836V31.7517H227.481V27.5273H221.836V21.8837H216.191V16.2401H211.965V21.8837H206.32V27.5273H200.675V31.7517H206.32V37.3953H211.965V43.0389Z" fill="#7D0000"/>
<path fill-rule="evenodd" clip-rule="evenodd" d="M210.667 26.1687H217.122L217.123 26.6687V26.1687H217.623V33.1247H210.667V26.1687ZM216.623 27.1687H211.667V32.1247H216.623V27.1687Z" fill="#7D0000"/>
<path fill-rule="evenodd" clip-rule="evenodd" d="M171.636 14.821H178.7V20.4646H184.346V26.1082H189.991V33.1708H184.346V38.8144H178.7V44.458H171.636V43.7485V38.8144H165.991V33.1708H160.345V26.1082H165.991V20.4646H171.636V14.821ZM173.055 43.0389H177.281V37.3953H182.926V31.7517H188.571V27.5273H182.926V21.8837H177.281V16.2401H173.055V21.8837H167.41V27.5273H161.765V31.7517H167.41V37.3953H173.055V43.0389Z" fill="#7D0000"/>
<path fill-rule="evenodd" clip-rule="evenodd" d="M171.098 26.2352H177.421L177.422 26.7352V26.2352H177.922V33.0588H171.098V26.2352ZM176.922 27.2352H172.099L172.098 32.0588H176.922V27.2352Z" fill="#7D0000"/>
<path fill-rule="evenodd" clip-rule="evenodd" d="M249.456 14.821H256.52V20.4646H262.165V26.1082H267.811V33.1708H262.165V38.8144H256.52V44.458H249.456V43.7485V38.8144H243.81V33.1708H238.165V26.1082H243.81V20.4646H249.456V14.821ZM250.875 43.0389H255.101V37.3953H260.746V31.7517H266.391V27.5273H260.746V21.8837H255.101V16.2401H250.875V21.8837H245.23V27.5273H239.585V31.7517H245.23V37.3953H250.875V43.0389Z" fill="#7D0000"/>
<path fill-rule="evenodd" clip-rule="evenodd" d="M248.918 26.2352H255.241L255.242 26.7352V26.2352H255.742V33.0588H248.918V26.2352ZM254.742 27.2352H249.919L249.918 32.0588H254.742V27.2352Z" fill="#7D0000"/>
<path fill-rule="evenodd" clip-rule="evenodd" d="M269.184 21.8042H275.762V16.2472H281.283L281.251 9.26182L280.251 9.26644L280.278 15.2472H274.762V20.8042H270.184V17.5397L270.222 15.2472H264.605V9.26413H263.605V16.2472H269.205L269.184 17.5354L269.184 21.8042Z" fill="#7D0000"/>
<path fill-rule="evenodd" clip-rule="evenodd" d="M269.184 36.5487H275.762V42.1056H281.283L281.251 49.091L280.251 49.0864L280.278 43.1056H274.762V37.5487H270.184V40.8132L270.222 43.1056H264.605V49.0887H263.605V42.1056H269.205L269.184 40.8174L269.184 36.5487Z" fill="#7D0000"/>
<path fill-rule="evenodd" clip-rule="evenodd" d="M308.094 21.8041H314.672V16.2471H320.193L320.161 9.26172L319.161 9.26635L319.188 15.2471H313.672V20.8041H309.094V17.5396L309.132 15.2471H303.515V9.26404H302.515V16.2471H308.115L308.093 17.5354L308.094 21.8041Z" fill="#7D0000"/>
<path fill-rule="evenodd" clip-rule="evenodd" d="M308.094 36.5486H314.672V42.1055H320.193L320.161 49.0909L319.161 49.0863L319.188 43.1055H313.672V37.5486H309.094V40.8131L309.132 43.1055H303.515V49.0886H302.515V42.1055H308.115L308.093 40.8173L308.094 36.5486Z" fill="#7D0000"/>
<path fill-rule="evenodd" clip-rule="evenodd" d="M347.003 21.8041H353.582V16.2471H359.103L359.071 9.26172L358.071 9.26635L358.098 15.2471H352.582V20.8041H348.003V17.5396L348.042 15.2471H342.425V9.26404H341.425V16.2471H347.025L347.003 17.5354L347.003 21.8041Z" fill="#7D0000"/>
<path fill-rule="evenodd" clip-rule="evenodd" d="M347.003 36.5486H353.582V42.1055H359.103L359.071 49.0909L358.071 49.0863L358.098 43.1055H352.582V37.5486H348.003V40.8131L348.042 43.1055H342.425V49.0886H341.425V42.1055H347.025L347.003 40.8173L347.003 36.5486Z" fill="#7D0000"/>
<path fill-rule="evenodd" clip-rule="evenodd" d="M327.275 14.821H334.34V20.4646H339.985V26.1082H345.631V33.1708H339.985V38.8144H334.34V44.458H327.275V43.7485V38.8144H321.63V33.1708H315.985V26.1082H321.63V20.4646H327.275V14.821ZM328.695 43.0389H332.921V37.3953H338.566V31.7517H344.211V27.5273H338.566V21.8837H332.921V16.2401H328.695V21.8837H323.05V27.5273H317.404V31.7517H323.05V37.3953H328.695V43.0389Z" fill="#7D0000"/>
<path fill-rule="evenodd" clip-rule="evenodd" d="M327.397 26.1687H333.852L333.853 26.6687V26.1687H334.353V33.1247H327.397V26.1687ZM333.353 27.1687H328.397V32.1247H333.353V27.1687Z" fill="#7D0000"/>
<path fill-rule="evenodd" clip-rule="evenodd" d="M288.366 14.821H295.43V20.4646H301.075V26.1082H306.721V33.1708H301.075V38.8144H295.43V44.458H288.366V43.7485V38.8144H282.72V33.1708H277.075V26.1082H282.72V20.4646H288.366V14.821ZM289.785 43.0389H294.011V37.3953H299.656V31.7517H305.301V27.5273H299.656V21.8837H294.011V16.2401H289.785V21.8837H284.14V27.5273H278.495V31.7517H284.14V37.3953H289.785V43.0389Z" fill="#7D0000"/>
<path fill-rule="evenodd" clip-rule="evenodd" d="M287.828 26.2352H294.151L294.152 26.7352V26.2352H294.652V33.0588H287.828V26.2352ZM293.652 27.2352H288.829L288.828 32.0588H293.652V27.2352Z" fill="#7D0000"/>
<path fill-rule="evenodd" clip-rule="evenodd" d="M366.185 14.821H373.25V20.4646H378.895V26.1082H384.541V33.1708H378.895V38.8144H373.25V44.458H366.185V43.7485V38.8144H360.54V33.1708H354.895V26.1082H360.54V20.4646H366.185V14.821ZM367.605 43.0389H371.831V37.3953H377.476V31.7517H383.121V27.5273H377.476V21.8837H371.831V16.2401H367.605V21.8837H361.96V27.5273H356.314V31.7517H361.96V37.3953H367.605V43.0389Z" fill="#7D0000"/>
<path fill-rule="evenodd" clip-rule="evenodd" d="M365.648 26.2352H371.97L371.972 26.7352V26.2352H372.472V33.0588H365.648V26.2352ZM371.472 27.2352H366.649L366.648 32.0588H371.472V27.2352Z" fill="#7D0000"/>
<path fill-rule="evenodd" clip-rule="evenodd" d="M385.913 21.8042H392.492V16.2472H398.013L397.98 9.26182L396.98 9.26644L397.008 15.2472H391.492V20.8042H386.913V17.5397L386.952 15.2472H381.335V9.26413H380.335V16.2472H385.935L385.913 17.5354L385.913 21.8042Z" fill="#7D0000"/>
<path fill-rule="evenodd" clip-rule="evenodd" d="M385.913 36.5487H392.492V42.1056H398.013L397.98 49.091L396.98 49.0864L397.008 43.1056H391.492V37.5487H386.913V40.8132L386.952 43.1056H381.335V49.0887H380.335V42.1056H385.935L385.913 40.8174L385.913 36.5487Z" fill="#7D0000"/>
<path fill-rule="evenodd" clip-rule="evenodd" d="M424.823 21.8041H431.402V16.2471H436.923L436.89 9.26172L435.89 9.26635L435.918 15.2471H430.402V20.8041H425.823V17.5396L425.862 15.2471H420.245V9.26404H419.245V16.2471H424.845L424.823 17.5354L424.823 21.8041Z" fill="#7D0000"/>
<path fill-rule="evenodd" clip-rule="evenodd" d="M424.823 36.5486H431.402V42.1055H436.923L436.89 49.0909L435.89 49.0863L435.918 43.1055H430.402V37.5486H425.823V40.8131L425.862 43.1055H420.245V49.0886H419.245V42.1055H424.845L424.823 40.8173L424.823 36.5486Z" fill="#7D0000"/>
<path fill-rule="evenodd" clip-rule="evenodd" d="M463.733 21.8041H470.312V16.2471H475.833L475.8 9.26172L474.8 9.26635L474.828 15.2471H469.312V20.8041H464.733V17.5396L464.772 15.2471H459.155V9.26404H458.155V16.2471H463.755L463.733 17.5354L463.733 21.8041Z" fill="#7D0000"/>
<path fill-rule="evenodd" clip-rule="evenodd" d="M463.733 36.5486H470.312V42.1055H475.833L475.8 49.0909L474.8 49.0863L474.828 43.1055H469.312V37.5486H464.733V40.8131L464.772 43.1055H459.155V49.0886H458.155V42.1055H463.755L463.733 40.8173L463.733 36.5486Z" fill="#7D0000"/>
<path fill-rule="evenodd" clip-rule="evenodd" d="M444.005 14.821H451.07V20.4646H456.715V26.1082H462.36V33.1708H456.715V38.8144H451.07V44.458H444.005V43.7485V38.8144H438.36V33.1708H432.715V26.1082H438.36V20.4646H444.005V14.821ZM445.425 43.0389H449.65V37.3953H455.296V31.7517H460.941V27.5273H455.296V21.8837H449.65V16.2401H445.425V21.8837H439.779V27.5273H434.134V31.7517H439.779V37.3953H445.425V43.0389Z" fill="#7D0000"/>
<path fill-rule="evenodd" clip-rule="evenodd" d="M444.127 26.1687H450.582L450.583 26.6687V26.1687H451.083V33.1247H444.127V26.1687ZM450.083 27.1687H445.127V32.1247H450.083V27.1687Z" fill="#7D0000"/>
<path fill-rule="evenodd" clip-rule="evenodd" d="M405.095 14.821H412.16V20.4646H417.805V26.1082H423.45V33.1708H417.805V38.8144H412.16V44.458H405.095V43.7485V38.8144H399.45V33.1708H393.805V26.1082H399.45V20.4646H405.095V14.821ZM406.515 43.0389H410.74V37.3953H416.386V31.7517H422.031V27.5273H416.386V21.8837H410.74V16.2401H406.515V21.8837H400.869V27.5273H395.224V31.7517H400.869V37.3953H406.515V43.0389Z" fill="#7D0000"/>
<path fill-rule="evenodd" clip-rule="evenodd" d="M404.558 26.2352H410.88L410.881 26.7352V26.2352H411.381V33.0588H404.558V26.2352ZM410.381 27.2352H405.559L405.558 32.0588H410.381V27.2352Z" fill="#7D0000"/>
<path fill-rule="evenodd" clip-rule="evenodd" d="M482.915 14.821H489.98V20.4646H495.625V26.1082H501.27V33.1708H495.625V38.8144H489.98V44.458H482.915V43.7485V38.8144H477.27V33.1708H471.625V26.1082H477.27V20.4646H482.915V14.821ZM484.335 43.0389H488.56V37.3953H494.205V31.7517H499.851V27.5273H494.205V21.8837H488.56V16.2401H484.335V21.8837H478.689V27.5273H473.044V31.7517H478.689V37.3953H484.335V43.0389Z" fill="#7D0000"/>
<path fill-rule="evenodd" clip-rule="evenodd" d="M482.378 26.2352H488.7L488.701 26.7352V26.2352H489.201V33.0588H482.378V26.2352ZM488.201 27.2352H483.378L483.378 32.0588H488.201V27.2352Z" fill="#7D0000"/>
<path fill-rule="evenodd" clip-rule="evenodd" d="M502.643 21.8042H509.222V16.2472H514.743L514.71 9.26182L513.71 9.26644L513.738 15.2472H508.222V20.8042H503.643V17.5397L503.682 15.2472H498.065V9.26413H497.065V16.2472H502.665L502.643 17.5354L502.643 21.8042Z" fill="#7D0000"/>
<path fill-rule="evenodd" clip-rule="evenodd" d="M502.643 36.5487H509.222V42.1056H514.743L514.71 49.091L513.71 49.0864L513.738 43.1056H508.222V37.5487H503.643V40.8132L503.682 43.1056H498.065V49.0887H497.065V42.1056H502.665L502.643 40.8174L502.643 36.5487Z" fill="#7D0000"/>
<path fill-rule="evenodd" clip-rule="evenodd" d="M541.553 21.8041H548.132V16.2471H553.652L553.62 9.26172L552.62 9.26635L552.648 15.2471H547.132V20.8041H542.553V17.5396L542.592 15.2471H536.974V9.26404H535.974V16.2471H541.575L541.553 17.5354L541.553 21.8041Z" fill="#7D0000"/>
<path fill-rule="evenodd" clip-rule="evenodd" d="M541.553 36.5486H548.132V42.1055H553.652L553.62 49.0909L552.62 49.0863L552.648 43.1055H547.132V37.5486H542.553V40.8131L542.592 43.1055H536.974V49.0886H535.974V42.1055H541.575L541.553 40.8173L541.553 36.5486Z" fill="#7D0000"/>
<path fill-rule="evenodd" clip-rule="evenodd" d="M580.463 21.8041H587.041V16.2471H592.562L592.53 9.26172L591.53 9.26635L591.558 15.2471H586.041V20.8041H581.463V17.5396L581.501 15.2471H575.884V9.26404H574.884V16.2471H580.484L580.463 17.5354L580.463 21.8041Z" fill="#7D0000"/>
<path fill-rule="evenodd" clip-rule="evenodd" d="M580.463 36.5486H587.041V42.1055H592.562L592.53 49.0909L591.53 49.0863L591.558 43.1055H586.041V37.5486H581.463V40.8131L581.501 43.1055H575.884V49.0886H574.884V42.1055H580.484L580.463 40.8173L580.463 36.5486Z" fill="#7D0000"/>
<path fill-rule="evenodd" clip-rule="evenodd" d="M560.735 14.821H567.8V20.4646H573.445V26.1082H579.09V33.1708H573.445V38.8144H567.8V44.458H560.735V43.7485V38.8144H555.09V33.1708H549.444V26.1082H555.09V20.4646H560.735V14.821ZM562.154 43.0389H566.38V37.3953H572.025V31.7517H577.671V27.5273H572.025V21.8837H566.38V16.2401H562.154V21.8837H556.509V27.5273H550.864V31.7517H556.509V37.3953H562.154V43.0389Z" fill="#7D0000"/>
<path fill-rule="evenodd" clip-rule="evenodd" d="M560.856 26.1687H567.311L567.312 26.6687V26.1687H567.812V33.1247H560.856V26.1687ZM566.812 27.1687H561.856V32.1247H566.812V27.1687Z" fill="#7D0000"/>
<path fill-rule="evenodd" clip-rule="evenodd" d="M521.825 14.821H528.89V20.4646H534.535V26.1082H540.18V33.1708H534.535V38.8144H528.89V44.458H521.825V43.7485V38.8144H516.18V33.1708H510.534V26.1082H516.18V20.4646H521.825V14.821ZM523.244 43.0389H527.47V37.3953H533.115V31.7517H538.761V27.5273H533.115V21.8837H527.47V16.2401H523.244V21.8837H517.599V27.5273H511.954V31.7517H517.599V37.3953H523.244V43.0389Z" fill="#7D0000"/>
<path fill-rule="evenodd" clip-rule="evenodd" d="M521.288 26.2352H527.61L527.611 26.7352V26.2352H528.111V33.0588H521.288V26.2352ZM527.111 27.2352H522.288L522.288 32.0588H527.111V27.2352Z" fill="#7D0000"/>
<path fill-rule="evenodd" clip-rule="evenodd" d="M599.645 14.821H606.709V20.4646H612.355V26.1082H618V33.1708H612.355V38.8144H606.709V44.458H599.645V43.7485V38.8144H594V33.1708H588.354V26.1082H594V20.4646H599.645V14.821ZM601.064 43.0389H605.29V37.3953H610.935V31.7517H616.58V27.5273H610.935V21.8837H605.29V16.2401H601.064V21.8837H595.419V27.5273H589.774V31.7517H595.419V37.3953H601.064V43.0389Z" fill="#7D0000"/>
<path fill-rule="evenodd" clip-rule="evenodd" d="M599.107 26.2352H605.43L605.431 26.7352V26.2352H605.931V33.0588H599.107V26.2352ZM604.931 27.2352H600.108L600.107 32.0588H604.931V27.2352Z" fill="#7D0000"/>
<path fill-rule="evenodd" clip-rule="evenodd" d="M0.966858 21.8032H3.92059H4.42358L4.42059 21.3003L4.39214 16.5291H9.7023H10.2048L10.2023 16.0267L10.1709 9.65689L9.17087 9.66183L9.19983 15.5291H3.88915H3.38616L3.38916 16.0321L3.4176 20.8032H0.966858V21.8032Z" fill="#7D0000"/>
<path fill-rule="evenodd" clip-rule="evenodd" d="M0.967621 37.5H3.41857L3.39013 42.2711L3.38713 42.7741H3.89012H9.20079L9.17183 48.6414L10.1718 48.6463L10.2033 42.2766L10.2057 41.7741H9.70327H4.39311L4.42155 37.003L4.42455 36.5H3.92156H0.967621V37.5Z" fill="#7D0000"/>
</svg>
